<svg id="Layer_1" data-name="Layer 1" xmlns="http://www.w3.org/2000/svg" xmlns:xlink="http://www.w3.org/1999/xlink" viewBox="0 0 1024 1024"><defs><style>.cls-1,.cls-4{fill:none;}.cls-2{fill:#def1ff;}.cls-3{fill:#c0dff2;}.cls-4{stroke:#d1d1d1;stroke-linecap:round;stroke-miterlimit:10;stroke-width:1.33px;}.cls-5{fill:#338599;}.cls-6{fill:#e3933f;}.cls-7{clip-path:url(#clip-path);}.cls-8{fill:#323333;}.cls-9{fill:#4e4e4c;}.cls-10{fill:#dba774;}.cls-11{fill:#e5e5e5;}.cls-12{fill:#ed7a28;}.cls-13{fill:#353534;}.cls-14{fill:#e8691c;}.cls-15{fill:#e3b57d;}.cls-16{fill:#8c8b8b;opacity:0.48;}.cls-17{fill:#262626;}.cls-18{fill:#58443a;}.cls-19{fill:#a7adaf;}.cls-20{fill:#c0cace;}.cls-21{fill:#cbd1d3;}</style><clipPath id="clip-path"><rect class="cls-1" x="215.47" y="185.99" width="565.57" height="554.7"/></clipPath></defs><path class="cls-2" d="M1024,512c0,263.27-198.71,480.13-454.33,508.79A518,518,0,0,1,512,1024C229.23,1024,0,794.77,0,512S229.23,0,512,0c258.32,0,472,191.3,507,440A515.38,515.38,0,0,1,1024,512Z"/><path class="cls-3" d="M623.9,365.74c0,.56,0,1.14-.06,1.72.16-.72.33-1.44.48-2.16l.26-.27c-.05-.09-.09-.19-.14-.28,12.33-55.79,7.4-76-.6-83.18a67.16,67.16,0,0,1-12.65-14.12c-6.21-9.42-5.7-14.19-9.75-21.7a28.2,28.2,0,0,0-3.94-5.57l171.86,138H617.75c1-3.74,1.92-7.47,4.41-10.68Z"/><path class="cls-3" d="M1021.63,561.56C998.9,798.15,815.17,987.7,581.3,1019.35L238.11,743.7a20.21,20.21,0,0,0,8.58,1.89H448.23l-4.06,37.46H416.1c-8.1,0-14.67,9.08-14.63,20.35H633.23c0-11.21-6.53-20.35-14.63-20.35H590.54l-4.06-37.46H788A20.65,20.65,0,0,0,808.53,725V400.41a21.51,21.51,0,0,0-5.94-14.78Z"/><path class="cls-4" d="M519.1,708.86c-1.15,1.9-2.3,3.79-3.5,5.63"/><path class="cls-5" d="M248.07,384.09a19.52,19.52,0,0,0-4.09.9l.09-.1A16.6,16.6,0,0,1,248.07,384.09Z"/><path class="cls-1" d="M516.86,757.6l1,.92"/><path class="cls-6" d="M517.29,752.32v.17h.12C517.35,752.43,517.29,752.37,517.29,752.32Z"/><g class="cls-7"><path class="cls-8" d="M463.73,500.2c1.33-.33,4.87-1.27,9.38-2.24,14.52-3.34,59-12.52,107.25.8,4.14,1.17,7.38,2.21,8.54,2.61l-.4,16.45-124.91-1.9Z"/><path class="cls-9" d="M781,682.89v233.5H273.29V666a97.64,97.64,0,0,1,47.2-83.45q13.72-8.31,27.74-16.69Q407,531.11,463.73,500.2c0,7.31-.2,14.59-.27,21.9L587,527.74c.7-8.78,1.4-17.59,2.07-26.37q47.16,23.37,97.27,51.37,14.72,8.28,29,16.69A131.34,131.34,0,0,1,781,682.89Z"/><path class="cls-10" d="M581.76,439.45H469.47c1.27,3,16.69,40.05,0,56.58a22.21,22.21,0,0,1-5.74,4.17L461.62,514a100.16,100.16,0,0,0,129.89-1c-.94-3.87-1.84-7.71-2.74-11.59h0a32.81,32.81,0,0,1-7-6.94C566.64,474.23,579.92,443.49,581.76,439.45Z"/><path class="cls-11" d="M593.81,520.93q-15.22,86.79-31.64,175.18-17.13,92.29-35,182.69-34.84-182.16-69.83-364.68a8.12,8.12,0,0,0,4-1.7,11.3,11.3,0,0,0,2.37-12.22,113.47,113.47,0,0,0,125.17,1.17Z"/><path class="cls-12" d="M571,751.56,527.45,878.77l-44.1-127.25q7.18-43,14.46-86.15t14.62-86.13L523,590.79a5.17,5.17,0,0,0,7.2,1.3,5.09,5.09,0,0,0,2.08-3l9.35-10.58q7.51,43.56,15,87.42Q563.86,708.83,571,751.56Z"/><path class="cls-12" d="M483.35,751.56a31.32,31.32,0,0,0-.76,4.2"/><path class="cls-12" d="M515.9,558.68c-1.13,6.91-2.3,13.66-3.34,20.6"/><path class="cls-12" d="M571.78,755.76a37.37,37.37,0,0,0-.77-4.2"/><path class="cls-12" d="M542.1,580.31c-1.16-7.14-2.5-14.48-3.67-21.63"/><path class="cls-13" d="M527.18,878.77,414.82,657.69l25.61-41.63-25.94-9.81q17.56-38.76,35.95-78,6.68-14.12,13.35-28.1,8.71,51.13,17.33,102.17Q504.49,740.88,527.18,878.77Z"/><ellipse class="cls-10" cx="421.79" cy="370.03" rx="11.22" ry="31.41" transform="translate(-60.87 83.9) rotate(-10.6)"/><ellipse class="cls-10" cx="622.39" cy="369.87" rx="31.41" ry="11.22" transform="translate(144.34 913.6) rotate(-79.4)"/><path class="cls-14" d="M522.64,591.7l-27-32.35a5.48,5.48,0,0,1,0-7.08l27-32.31a5.52,5.52,0,0,1,7.77-.65,6.65,6.65,0,0,1,.65.65l27.6,32.31a5.48,5.48,0,0,1,0,7.15l-27.6,32.28a5.54,5.54,0,0,1-7.82.59A6.67,6.67,0,0,1,522.64,591.7Z"/><path class="cls-13" d="M527.18,878.77q55.29-112.07,110.63-224.12l-25.64-41.89,25.94-10L588.9,501.2Q558.06,690.11,527.18,878.77Z"/><path class="cls-15" d="M526.78,481c-21.76.67-37.88-13.79-55.34-30a211.55,211.55,0,0,1-41.82-54.15,108.42,108.42,0,0,1-12.89-51.56V325c0-60.07,49.72-108.92,109.73-106.34A105.16,105.16,0,0,1,627,323.75v29.36a85.35,85.35,0,0,1-6.49,32.83,201.92,201.92,0,0,1-39.58,61C564.67,464.05,549.08,480.34,526.78,481Z"/></g><path class="cls-16" d="M435.73,361.34a95.46,95.46,0,0,1,14.1-4,99,99,0,0,1,20.27-1.85,114.25,114.25,0,0,1,19.45,1.71c8.7,1.4,13.12,2.17,16.64,5.14a19.39,19.39,0,0,1,6.39,11.35c.84,4.95-1.05,9.19-4.81,17.66-3.84,8.63-7.15,11.93-8.65,13.31a30,30,0,0,1-5.6,4.1c-2.6,1.45-7.67,3.67-24.34,2.73-11.33-.63-17.08-1-21.43-4.26-2.83-2.12-5-4.92-7.2-10C435.11,384.85,434.67,371.77,435.73,361.34Z"/><path class="cls-16" d="M539.67,361.73a92.39,92.39,0,0,1,14.1-4A98.26,98.26,0,0,1,574,355.91a114.33,114.33,0,0,1,19.44,1.7c8.7,1.41,13.13,2.17,16.65,5.15a19.42,19.42,0,0,1,6.38,11.34c.84,5-1,9.19-4.81,17.66-3.84,8.63-7.14,11.94-8.64,13.32a31.23,31.23,0,0,1-5.6,4.1c-2.6,1.44-7.68,3.66-24.35,2.73-11.32-.64-17.07-1-21.42-4.27-2.83-2.11-5-4.91-7.2-10C539.05,385.24,538.6,372.16,539.67,361.73Z"/><path class="cls-17" d="M434.32,387.44c-1.95-6.68-1.93-8.34-3.16-12.33A34.43,34.43,0,0,0,428,368c-1.49-2.61-1.05-5.32-1-8,0-.39,1-1,1.66-1.07,6.75-1.31,13.48-2.77,20.29-3.75a143.8,143.8,0,0,1,26.16-1.38,93.89,93.89,0,0,1,28.73,5.36c4.18,1.53,8.33,3.21,12.62,4.39A33.27,33.27,0,0,0,538.07,362a60,60,0,0,1,5.84-2.37c7.38-2.12,14.73-4.37,22.48-5.07,18.66-1.69,36.94.43,55,4.82,1,.24,1.44.74,1.4,1.67-.07,1.72-.12,3.45-.24,5.16a2.63,2.63,0,0,1-.45,1.37c-2.93,3.78-3.71,8.29-5,12.68-1.73,6.08-3.44,12.17-5.58,18.13-2.45,6.83-7.77,10.82-15,12.66a78.63,78.63,0,0,1-24.51,1.9,104.28,104.28,0,0,1-12.25-1.34A24.15,24.15,0,0,1,542,398.2c-3.21-6.3-6-12.78-9-19.19-.41-.88-.83-1.77-1.29-2.63a7.34,7.34,0,0,0-7-4.09,7.1,7.1,0,0,0-6.86,4.11c-1.73,3.56-3.13,7.26-4.85,10.82-2,4.17-4.07,8.32-6.38,12.34a23.92,23.92,0,0,1-17.95,12.07c-11.17,1.68-22.38,2-33.52-.39-4.64-1-9.22-2.41-12.45-5.95a29.57,29.57,0,0,1-4.61-7c-.33-.7-.63-1.41-.91-2.14-.2-.52-.84-2.12-2.16-6.42C434.82,389.12,434.57,388.31,434.32,387.44Zm174.93-23.55a5.08,5.08,0,0,0-.91-.87,27.68,27.68,0,0,0-10.32-3.7,118,118,0,0,0-33.72-.8,49.69,49.69,0,0,0-16.24,4.21c-7.36,3.56-9.38,6.92-8.34,14.66A52.74,52.74,0,0,0,549,400.83a18.85,18.85,0,0,0,12.28,8c2.9.54,5.84.91,8.78,1.18a71.63,71.63,0,0,0,25.17-1.92c5-1.31,8.47-4,10.31-8.75a93.22,93.22,0,0,0,5.87-25.21C611.67,371.1,612,366.9,609.25,363.89Zm-169.2,21a61.43,61.43,0,0,0,4.54,15.36,12.13,12.13,0,0,0,7.53,6.78,63.39,63.39,0,0,0,6.65,1.81c8.52,1.74,17.1,1.55,25.69.53,5.42-.64,10.48-2.18,14.07-6.34a47.72,47.72,0,0,0,5.27-7.73,48.89,48.89,0,0,0,6.28-20.55,10.33,10.33,0,0,0-5-10.1,35.08,35.08,0,0,0-12.29-5,113.36,113.36,0,0,0-40.28-.76c-9.1,1.37-10.88,3.12-11.93,4.33C437.76,366.44,438.53,372.59,440.05,384.89Z"/><path d="M622.59,360.15c.13.57.27,1.15.4,1.72l1.53,3.16-2.42,2.51"/><path d="M427.62,367.25l-3.95-2.07c.42-.69.8-1.26,1.08-1.67a19.67,19.67,0,0,1,2.52-3.15c.2-.19.36-.35.48-.45Q427.67,363.59,427.62,367.25Z"/><path class="cls-18" d="M428.22,375.47a123.36,123.36,0,0,1-16.88-54.25c-.77-12.18-2.83-45.8,12.76-54.81a82,82,0,0,0,20-13.05c8.47-8,7.73-11.85,14.07-18.69,13.77-14.79,35.43-16.53,42.31-17.13,3.61-.33,11,0,25.71.23,16.17.44,16,.94,21.3.41,6.37-.64,10.12-1.67,15.69-.41a32.28,32.28,0,0,1,11.16,5.31c14.68,9.75,22.51,14.36,27,22.67,4,7.51,3.54,12.28,9.75,21.7a67.4,67.4,0,0,0,12.65,14.12c8.13,7.34,13.09,28,0,85.88,1-26.7-4.79-35.75-10.42-38.95-2.2-1.27-12.66-6.31-18.12-13.35-1.25-1.61-2.4-3.34-2.4-3.34A49,49,0,0,1,587.51,301c-1.42-4-5.94-11.55-18.73-26.71-29.25,1.77-46.8,10.92-57.36,19-12.95,9.78-18.42,20-35.36,25.3-15.12,4.74-21.43,0-30.37,4.84S428.22,340.28,428.22,375.47Z"/><path class="cls-19" d="M786.45,378.28c-.4,0-.81-.06-1.15-.06H249.51c-12.82,0-23.28,9.95-23.28,22.13V683.86h-.06v41.21a20.54,20.54,0,0,0,20.52,20.52H788A20.65,20.65,0,0,0,808.53,725V400.41C808.53,388.57,798.75,378.86,786.45,378.28ZM244,385l.09-.1a16.59,16.59,0,0,1,4-.8A19.75,19.75,0,0,0,244,385Z"/><path class="cls-20" d="M416.1,783.05H618.6c8.1,0,14.63,9.14,14.63,20.34H401.47C401.43,792.13,408,783.05,416.1,783.05Z"/><polygon class="cls-21" points="592.74 803.39 441.96 803.39 466.39 578.29 568.36 578.29 592.74 803.39"/><rect class="cls-21" x="269.34" y="396.82" width="496.02" height="3.57"/></svg>